<?xml version="1.0" encoding="utf-8"?>
<!-- Generator: Adobe Illustrator 16.0.2, SVG Export Plug-In . SVG Version: 6.00 Build 0)  -->
<!DOCTYPE svg PUBLIC "-//W3C//DTD SVG 1.1//EN" "http://www.w3.org/Graphics/SVG/1.1/DTD/svg11.dtd">
<svg version="1.1" id="Calque_1" xmlns="http://www.w3.org/2000/svg" xmlns:xlink="http://www.w3.org/1999/xlink" x="0px" y="0px"
	 width="363.333px" height="105.333px" viewBox="-13 -9.333 363.333 105.333" enable-background="new -13 -9.333 363.333 105.333"
	 xml:space="preserve">
<g>
	<path fill="#3B8063" d="M13.77,42.081c0-0.87-0.464-1.276-1.276-1.276H10v-2.203h2.842c2.378,0,3.364,0.986,3.364,3.189v2.03
		c0,1.334-0.116,2.378-0.116,2.378h0.116c1.45-4.466,4.582-7.83,9.164-7.83c0.87,0,1.682,0.174,1.682,0.174v2.436
		c0,0-0.696-0.115-1.334-0.115c-4.523,0-7.366,3.828-8.642,8.118c-0.638,2.031-0.87,4.177-0.87,6.091v12.528H13.77V42.081z"/>
	<path fill="#3B8063" d="M43.755,37.905c7.888,0,11.832,6.206,11.832,13.224c0,0.639-0.116,1.566-0.116,1.566H32.214
		c0,8.41,5.684,13.223,12.412,13.223c5.568,0,8.99-3.652,8.99-3.652l1.334,2.029c0,0-4.06,4.002-10.324,4.002
		c-8.178,0-14.964-5.916-14.964-15.139C29.662,43.357,36.332,37.905,43.755,37.905z M53.035,50.434
		c-0.29-7.076-4.524-10.267-9.338-10.267c-5.335,0-10.266,3.479-11.31,10.267H53.035z"/>
	<path fill="#3B8063" d="M63.823,42.081c0-0.87-0.464-1.276-1.276-1.276h-2.494v-2.203h2.842c2.378,0,3.364,0.986,3.364,3.189
		c0,1.334-0.058,2.32-0.058,2.32h0.116c0,0,2.262-6.206,10.324-6.206c7.772,0,12.528,6.206,12.528,15.196
		c0,9.221-5.394,15.194-12.876,15.194c-7.656,0-10.034-6.264-10.034-6.264h-0.116c0,0,0.116,1.043,0.116,2.551V79.2h-2.436V42.081z
		 M76.292,65.977c5.684,0,10.324-4.756,10.324-12.875c0-7.83-4.176-12.817-10.092-12.817c-5.336,0-10.324,3.77-10.324,12.875
		C66.201,59.598,69.681,65.977,76.292,65.977z"/>
	<path fill="#3B8063" d="M109.41,37.905c8.293,0,15.021,6.554,15.021,15.021c0,8.643-6.728,15.37-15.021,15.37
		c-8.294,0-15.022-6.729-15.022-15.37C94.388,44.459,101.116,37.905,109.41,37.905z M109.41,65.918
		c6.902,0,12.47-5.625,12.47-12.991c0-7.192-5.568-12.644-12.47-12.644c-6.902,0-12.47,5.451-12.47,12.644
		C96.94,60.293,102.508,65.918,109.41,65.918z"/>
	<path fill="#3B8063" d="M132.146,42.081c0-0.87-0.464-1.276-1.276-1.276h-2.494v-2.203h2.842c2.378,0,3.364,0.986,3.364,3.189v2.03
		c0,1.334-0.116,2.378-0.116,2.378h0.116c1.45-4.466,4.582-7.83,9.164-7.83c0.87,0,1.682,0.174,1.682,0.174v2.436
		c0,0-0.696-0.115-1.334-0.115c-4.523,0-7.366,3.828-8.642,8.118c-0.638,2.031-0.87,4.177-0.87,6.091v12.528h-2.436V42.081z"/>
	<path fill="#3B8063" d="M152.271,40.805h-3.828v-2.203h3.828V30.54h2.436v8.062h7.598v2.203h-7.598V56.93
		c0,7.654,4.582,8.641,6.902,8.641c0.812,0,1.334-0.114,1.334-0.114v2.262c0,0-0.58,0.115-1.45,0.115
		c-3.016,0-9.222-1.103-9.222-10.729V40.805z"/>
	<path fill="#3B8063" d="M170.773,42.081c0-0.87-0.464-1.276-1.276-1.276h-2.494v-2.203h2.842c2.378,0,3.364,0.986,3.364,3.363
		v22.156c0,0.869,0.463,1.275,1.275,1.275h2.494V67.6h-2.843c-2.378,0-3.364-0.984-3.364-3.363L170.773,42.081L170.773,42.081z
		 M170.425,27.002h2.667v4.233h-2.667V27.002z"/>
	<path fill="#3B8063" d="M183.766,42.081c0-0.87-0.465-1.276-1.277-1.276h-2.493v-2.203h2.842c2.379,0,3.364,0.986,3.364,3.189
		v1.624c0,1.334-0.116,2.378-0.116,2.378h0.116c0.986-2.726,4.931-7.888,12.18-7.888c7.54,0,9.569,4.466,9.569,11.31v14.906
		c0,0.869,0.465,1.275,1.276,1.275h2.494V67.6h-2.843c-2.378,0-3.364-0.984-3.364-3.363V50.085c0-5.046-0.638-9.802-7.134-9.802
		c-5.452,0-10.267,3.828-11.716,9.222c-0.348,1.218-0.464,2.552-0.464,3.944V67.6h-2.437V42.081H183.766z"/>
	<path fill="#3B8063" d="M228.133,37.905c8.236,0,9.977,5.394,9.977,5.394h0.115c0,0-0.058-0.638-0.058-1.334
		c0-2.377,0.985-3.363,3.364-3.363h2.842v2.203h-2.494c-0.813,0-1.275,0.406-1.275,1.276v25.346c0,8.874-6.381,12.354-13.281,12.354
		c-3.19,0-6.264-0.813-9.106-2.262l1.16-2.146c0,0,3.597,2.029,7.772,2.029c6.205,0,11.02-2.959,11.02-9.977v-3.074
		c0-1.334,0.116-2.377,0.116-2.377h-0.116c-1.738,3.537-4.813,5.625-9.628,5.625c-7.539,0-12.875-5.916-12.875-14.964
		C215.665,43.59,220.594,37.905,228.133,37.905z M238.225,52.637c0-9.338-4.408-12.354-10.092-12.354
		c-6.205,0-9.918,4.523-9.918,12.354c0,7.831,4.293,12.586,10.498,12.586C233.816,65.223,238.225,62.033,238.225,52.637z"/>
</g>
<path fill="none" d="M256.257,64.216c-0.366-0.562-0.717-1.135-1.054-1.717c-0.001,0.058-0.01,0.11-0.01,0.169
	C255.193,63.552,255.583,64.045,256.257,64.216z"/>
<linearGradient id="SVGID_1_" gradientUnits="userSpaceOnUse" x1="297.3945" y1="8.2759" x2="252.7222" y2="69.7621" gradientTransform="matrix(1 0 0 -1 0 92)">
	<stop  offset="0" style="stop-color:#C4D32B"/>
	<stop  offset="1" style="stop-color:#3B8063"/>
</linearGradient>
<path fill="url(#SVGID_1_)" d="M280.355,28.773c0-6.217-4.514-11.101-11.987-11.101c-3.283,0-6.986,0.489-9.509,1.569
	c-5.465,6.582-8.752,15.035-8.752,24.258c0,5.006,0.978,9.78,2.736,14.156C257.495,43.695,280.355,43.666,280.355,28.773z"/>
<linearGradient id="SVGID_2_" gradientUnits="userSpaceOnUse" x1="310.4658" y1="17.7705" x2="265.7968" y2="79.2521" gradientTransform="matrix(1 0 0 -1 0 92)">
	<stop  offset="0" style="stop-color:#C4D32B"/>
	<stop  offset="1" style="stop-color:#3B8063"/>
</linearGradient>
<path fill="url(#SVGID_2_)" d="M288.107,5.5c-9.567,0-18.303,3.545-24.982,9.381c2.021-0.25,3.938-0.316,5.316-0.316
	c10.213,0,15.244,6.809,15.244,14.209c0,18.363-28.283,17.404-28.481,33.726c0.337,0.582,0.688,1.155,1.054,1.717
	c0.174,0.044,0.354,0.081,0.564,0.081h25.57l-0.557,2.959h-23.378c6.964,8.683,17.653,14.244,29.649,14.244
	c20.985,0,38-17.013,38-38C326.108,22.514,309.094,5.5,288.107,5.5z"/>
<path fill="#FFFFFF" d="M283.686,28.773c0-7.4-5.031-14.209-15.244-14.209c-1.381,0-3.297,0.066-5.316,0.316
	c-1.534,1.34-2.964,2.795-4.266,4.361c2.521-1.08,6.226-1.569,9.509-1.569c7.475,0,11.987,4.884,11.987,11.101
	c0,14.893-22.86,14.922-27.512,28.883c0.674,1.678,1.463,3.294,2.359,4.843C255.402,46.178,283.686,47.137,283.686,28.773z"/>
<path fill="#FFFFFF" d="M282.393,64.297h-25.569c-0.212,0-0.394-0.037-0.565-0.081c0.686,1.052,1.419,2.065,2.201,3.04h23.378
	L282.393,64.297z"/>
<g>
	<path fill="#FFFFFF" d="M293.341,63.771h11.449V20.727c0-1.295,0.071-2.52,0.071-2.52h-0.145c0,0-0.504,0.936-2.664,3.096
		l-5.977,5.978l-2.16-2.088l10.873-10.945h3.097v49.524h11.16v2.879H293.34L293.341,63.771L293.341,63.771z"/>
</g>
</svg>
