<?xml version="1.0" encoding="utf-8"?>
<!-- Generator: Adobe Illustrator 16.0.2, SVG Export Plug-In . SVG Version: 6.00 Build 0)  -->
<!DOCTYPE svg PUBLIC "-//W3C//DTD SVG 1.1//EN" "http://www.w3.org/Graphics/SVG/1.1/DTD/svg11.dtd">
<svg version="1.1" id="Calque_1" xmlns="http://www.w3.org/2000/svg" xmlns:xlink="http://www.w3.org/1999/xlink" x="0px" y="0px"
	 width="723px" height="485px" viewBox="-39 16.5 723 485" enable-background="new -39 16.5 723 485" xml:space="preserve">
<g>
	<path d="M518.821,453.601l0.438,0.513l4.885,5.433l-5.321,3.222L518.821,453.601L518.821,453.601z M512.453,455.849l-0.713,0.375
		l0.104,0.32c0.57-0.346,0.816-0.32,1.006-0.293c0.684,0.168,0.835,0.808,0.866,1.214v12.176c0,0.762,0.293,1.231,0.778,1.563
		l3.418,2.154c0.677,0.51,1.521,0.989,1.877,1.188l0.104,0.064l0.009-0.006c0.034,0.021,0.061,0.036,0.061,0.036
		c0.132,0,3.566-1.895,4.969-2.673l1.698-0.877l-0.242-0.233c-1.36,0.81-1.791,0.732-2.248,0.671h-0.029
		c-0.512-0.176-1.534-0.77-2.53-1.382l-2.219-1.498c-0.485-0.336-0.535-0.566-0.535-1.186v-4.261l9.524-5.636l-6.562-7.01
		l-7.246,4.157C514.426,454.749,513.031,455.527,512.453,455.849 M498.336,453.368l4.3-2.443l0.363-0.196v20.256l-0.293-0.161
		l-3.453-2.176c-0.678-0.43-0.921-0.762-0.921-1.613V453.37L498.336,453.368L498.336,453.368z M491.953,456.473l-0.713,0.375
		l0.104,0.317c0.57-0.343,0.813-0.317,1.006-0.289c0.824,0.199,0.874,1.104,0.878,1.435l0.005-0.012v10.867
		c0,1.042,0.293,1.471,0.971,1.896l5.834,3.551l7.174-4.104c0.117-0.035,1.505-0.813,2.083-1.135l0.714-0.371l-0.104-0.316
		c-0.57,0.344-0.813,0.316-1.006,0.288c-0.824-0.203-0.88-1.103-0.88-1.434l-0.01,0.035V448.57c0-2.938-1.361-4.827-3.597-6.154
		l-2.188-1.327l-3.268,1.858c-0.488,0.265-1.159,0.646-1.521,0.843l-0.714,0.374l0.102,0.318c0.575-0.349,0.94-0.352,1.135-0.318
		l0.268,0.039c0.309,0.058,0.656,0.164,1.219,0.447v-0.007l0.979,0.563c1.558,0.85,2.579,2.558,2.579,4.31v0.757L492.795,456
		C492.475,456.181,492.16,456.354,491.953,456.473 M465.671,453.654l0.546-0.274c0.421-0.247,1.163-0.168,2.387,0.795l2.162,1.467
		c0.067,0.909,0.028,13.204,0.028,13.204c0.012,1.416,0.143,2.982-0.121,4.021c-0.257,1.271-0.788,1.563-0.889,1.716l0.226,0.218
		c0.574-0.325,4.148-2.501,4.148-2.501c0.818-0.471,1.26-1.085,1.406-1.353c0.494-0.89,0.49-2.155,0.479-3.438
		c-0.011-1.15-0.004-12.411-0.004-12.411c-0.121-1.417,0.906-2.146,2.271-1.299c0.345,0.174,1.199,0.671,2.128,1.216
		c0.468,0.354,0.521,0.727,0.521,1.399v12.85l0.011-0.025v0.003c-0.008,1.131-0.121,2.313,0.285,3.215
		c0.438,0.842,2.938,2.158,2.938,2.158c0.132,0.004,3.569-1.89,4.973-2.669l1.695-0.874l-0.242-0.235
		c-1.359,0.807-1.938,0.749-2.394,0.682h-0.003c-1.955-0.475-2.08-2.583-2.087-3.362c-0.021-2.188-0.043-13.895-0.043-13.895
		c0-0.015,0-0.018,0-0.022v-0.004c0-0.664-0.242-1.187-0.924-1.563l-2.594-1.439c-0.692-0.43-1.245-0.759-1.299-0.759
		c0,0-5.455,3.267-5.587,3.259c0,0-4.663-3.271-4.776-3.271c0,0-5.173,2.858-5.245,2.813v0.383h0.003V453.654z M453.68,466.688
		l0.053-12.66l0.287,0.112l3.841,2.173c0.775,0.43,0.924,0.808,0.924,1.612v12.854l-0.289-0.16l-3.988-2.276
		C453.826,467.968,453.68,467.54,453.68,466.688 M447.354,455.604l-0.713,0.37l0.102,0.317c0.574-0.343,0.815-0.321,1.01-0.293
		c0.731,0.183,0.854,0.91,0.874,1.306v11.562c0,1.131,0.293,1.563,1.021,1.985l6.173,3.556l7.572-4.317
		c0.478-0.25,1.344-0.733,1.771-0.974l0.713-0.371l-0.104-0.317c-0.573,0.342-0.816,0.317-1.008,0.289
		c-0.772-0.188-0.864-0.989-0.878-1.357v-11.801c0-0.658-0.242-1.185-0.924-1.563l-6.271-3.646l-7.246,4.114h0.004
		C449.392,454.465,447.943,455.271,447.354,455.604 M422.438,446.973c0.082,1.104,0.032,20.771,0.032,20.771
		c0.016,1.725,0.171,3.621-0.143,4.877c-0.313,1.545-0.945,1.896-1.063,2.084l0.27,0.26c0.688-0.397,4.97-3.039,4.97-3.039
		c0.981-0.563,1.505-1.309,1.687-1.634c0.595-1.081,0.588-2.607,0.571-4.167c-0.01-1.396-0.003-19.812-0.003-19.812
		c-0.146-1.718,1.088-2.602,2.723-1.572c1.066,0.545,6.298,3.728,6.298,3.728c-2.685,1.398-3.059,3.563-3.11,5.651
		c-0.025,1.027-0.004,14.353-0.004,14.353c-0.007,1.362-0.145,2.799,0.343,3.895c0.524,1.021,3.52,2.621,3.52,2.621
		c0.154,0,4.271-2.293,5.953-3.235l2.033-1.064l-0.293-0.282c-1.63,0.978-2.316,0.91-2.863,0.828
		c-2.342-0.57-2.493-3.129-2.503-4.081c-0.022-2.654-0.003-15.237-0.003-15.237c0.02-1.035,0.104-2.315,0.41-3.157
		c0.531-1.453,2.647-3.165,3.93-4.011c0,0,0-0.003-0.006-0.007l-0.307-0.3c-0.474,0.35-1.646,1.361-3.05,0.646
		c0,0-6.604-4.384-6.796-4.387c0,0-6.532,3.956-6.69,3.948c0,0-5.587-3.963-5.718-3.963c0,0-6.201,3.468-6.283,3.405
		c-0.386-1.585-1.377-2.317-1.573-2.485c-0.503-0.421-1.256-0.774-2.083-0.851c-2.071-0.203-3.355,0.417-4.786,0.877
		c0,0-2.497,0.891-3.118,0.992c-0.524,0.104-0.874,0.114-1.198-0.143c-0.457-0.344-0.265-0.895-0.043-1.265
		c0.104-0.172,0.238-0.34,0.353-0.483c0.092-0.114,0.778-0.917,0.93-1.098l-0.22-0.214c-0.767,0.66-2.336,1.877-3.058,2.647
		l-0.003-0.004c0,0-1.613,1.489-1.873,3.047c-0.136,0.839,0.078,2.158,1.273,2.805c1.303,0.702,3.237,0.192,3.237,0.192
		s2.276-0.671,3.391-0.973c0.479-0.128,2.473-0.819,2.473,0.969l0.021,12.855c0.018,1.716,0.051,3.614-0.269,4.874
		c-0.271,1.548-0.946,1.888-1.082,2.076l0.261,0.257c0.716-0.407,5.182-3.023,5.182-3.023c0.983-0.57,1.51-1.313,1.685-1.64
		c0.596-1.077,0.589-2.609,0.578-4.163l-0.011-13.925c0.007-0.909,0.733-2.383,3.443-0.235L422.438,446.973z M397.74,474.539
		l0.188,0.186c0.796-0.854,1.881-1.47,3.439-1.456c2.922,0.029,5.455,1.413,8.271,1.758l9.614-6.014l-0.292-0.285
		c-1.595,1.148-3.571,1.167-3.692,1.199c-0.021,0-0.037,0.003-0.054,0.003c-3.66,0.114-6.027-1.242-9.305-1.267
		C401.764,468.628,398.161,471.265,397.74,474.539 M362.606,453.123l-1.698,0.881l0.245,0.232c1.357-0.813,1.938-0.753,2.392-0.685
		c1.954,0.474,2.083,2.584,2.09,3.361c0.02,2.188,0.043,13.897,0.043,13.897c0,0.009,0,0.013,0,0.02v0.007
		c0,0.664,0.242,1.182,0.924,1.563l2.596,1.438c0.688,0.425,1.239,0.753,1.299,0.757c0,0,5.454-3.265,5.587-3.258
		c0,0,4.663,3.27,4.773,3.27c0,0,5.176-2.857,5.247-2.81v-0.389l-0.547,0.282c-0.422,0.236-1.162,0.158-2.391-0.801l-2.162-1.463
		c-0.065-0.914-0.022-13.204-0.022-13.204c-0.017-1.42-0.145-2.984,0.119-4.022c0.259-1.277,0.788-1.563,0.89-1.72l-0.227-0.215
		c-0.572,0.327-4.146,2.506-4.146,2.506c-0.82,0.467-1.26,1.085-1.409,1.348c-0.496,0.89-0.493,2.155-0.479,3.437
		c0.011,1.156,0.004,12.412,0.004,12.412c0.121,1.419-0.91,2.154-2.273,1.304c-0.342-0.177-1.201-0.673-2.126-1.214
		c-0.467-0.356-0.521-0.729-0.521-1.401v-12.854l-0.013,0.028v-0.004c0.004-1.121,0.117-2.305-0.285-3.207
		c-0.438-0.843-2.937-2.166-2.937-2.166C367.447,450.454,364.008,452.349,362.606,453.123 M348.846,453.368l4.305-2.443l0.361-0.196
		v20.256l-0.292-0.161l-3.45-2.176c-0.681-0.43-0.924-0.762-0.924-1.613V453.368L348.846,453.368z M341.75,456.848l0.104,0.317
		c0.57-0.343,0.813-0.317,1.008-0.289c0.821,0.199,0.877,1.104,0.881,1.435v-0.012v10.867c0,1.042,0.293,1.471,0.975,1.896
		l5.832,3.551l7.171-4.104c0.118-0.035,1.506-0.813,2.084-1.135l0.714-0.371l-0.101-0.316c-0.573,0.344-0.816,0.316-1.009,0.288
		c-0.82-0.203-0.875-1.103-0.878-1.434l-0.013,0.035V448.57c0-2.938-1.361-4.827-3.597-6.154l-2.187-1.327l-3.27,1.858
		c-0.483,0.265-1.16,0.646-1.521,0.843l-0.713,0.374l0.104,0.318c0.57-0.349,0.938-0.352,1.131-0.318l0.27,0.039
		c0.307,0.058,0.654,0.164,1.216,0.447v-0.007l0.983,0.563c1.557,0.85,2.575,2.558,2.575,4.31v0.757L343.307,456
		c-0.322,0.179-0.639,0.356-0.846,0.471L341.75,456.848z"/>
	<g>
		<path d="M168.784,473.376c-0.877-0.535-3.122-1.852-5.255-2.525v-5.771l11.599-9.563l-0.335-0.194
			c-2.159-1.266-4.688-3.001-6.147-4.226l-0.182-0.152l-0.175,0.164c-1.191,1.1-3.122,2.594-5.547,3.462l-0.21,0.072l0.032,0.224
			c0.075,0.556,0.11,1.091,0.11,1.774v13.949c-0.331-0.075-0.652-0.129-0.938-0.157l-0.296-0.022v0.806l0.239,0.029
			c2.351,0.267,5.951,2.375,7.028,3.092l0.178,0.118l6.532-6.218l0.186-0.177l-0.539-0.651L168.784,473.376z M163.529,463.986
			v-7.391c0-0.646-0.028-1.077-0.061-1.408c1.916-0.819,3.6-1.876,5.013-3.145c1.277,1.024,3.414,2.494,5.202,3.586L163.529,463.986
			z"/>
		<path d="M215.191,471.05c-0.788,0.757-1.994,1.733-2.843,2.383l-0.107-0.063c-0.831-0.485-1.691-0.985-1.884-2.783v-15.712
			l1.313-1.052l-0.539-0.653l-1.181,0.949l-3.292-3.137l-7.075,6.146v-2.568l-0.075-0.073c-0.91-0.973-2.041-2.065-3.457-3.34
			l-0.178-0.16l-7.075,6.144v-2.144c-0.186-1.374-1.348-2.44-2.472-3.478l-0.578-0.531l-2.736,2.483l-0.193,0.178l0.539,0.646
			l2.383-2.182c1.021,0.941,2.069,1.915,2.202,2.95v16.364c-0.361-0.238-0.735-0.467-1.017-0.639l-0.41-0.242v0.978l0.132,0.078
			c1.37,0.821,2.769,1.841,3.957,2.729l0.171,0.128l0.164-0.136c1.352-1.14,2.772-2.154,3.496-2.657l0.243-0.168l-0.542-0.656
			l-0.207,0.148c-0.45,0.324-1.966,1.421-3.179,2.392c-0.592-0.417-1.285-0.909-1.958-1.385v-13.762l7.071-6.14
			c0.91,0.785,2.03,1.904,2.858,2.758v16.568c-0.296-0.196-0.635-0.411-1.024-0.641l-0.41-0.237v0.974l0.131,0.078
			c1.396,0.835,2.847,1.898,3.96,2.729l0.171,0.128l0.165-0.137c1.338-1.128,2.765-2.149,3.493-2.657l0.243-0.171l-0.542-0.652
			l-0.207,0.148c-0.738,0.531-2.101,1.533-3.175,2.392c-0.593-0.417-1.288-0.909-1.959-1.385v-13.761l7.057-6.134l2.872,2.758
			v15.808c0.257,2.203,1.327,2.843,2.358,3.464c0.118,0.069,0.235,0.139,0.353,0.214l0.157,0.097l0.149-0.105
			c1.042-0.762,2.187-1.702,3.232-2.647l0.193-0.175l-0.546-0.66L215.191,471.05z"/>
		<path d="M329.941,467.41l-6.275,5.966c-0.882-0.538-3.14-1.854-5.259-2.525v-5.771l11.298-9.313l0.304-0.247l-0.339-0.193
			c-2.155-1.266-4.681-3.001-6.144-4.227l-0.185-0.151l-0.178,0.164c-1.191,1.099-3.125,2.594-5.548,3.461l-0.21,0.073l0.032,0.223
			c0.074,0.53,0.11,1.064,0.11,1.774v13.95c-0.332-0.075-0.652-0.129-0.938-0.157l-0.296-0.023v0.563l-0.068,0.074
			c-0.778,0.742-1.951,1.694-2.847,2.38c-0.035-0.021-0.071-0.043-0.107-0.063c-0.795-0.468-1.694-0.996-1.883-2.779v-15.712
			l1.313-1.052l-0.542-0.649l-1.184,0.945c-0.885-0.827-2.291-2.023-3.514-2.982l-0.184-0.143l-7.445,6.886v-2.894
			c-0.186-1.374-1.345-2.44-2.469-3.478l-0.574-0.531l-2.929,2.661l0.542,0.646l2.383-2.183c1.021,0.942,2.069,1.916,2.202,2.951
			v16.364c-0.35-0.23-0.717-0.457-1.021-0.639l-0.41-0.242v0.978l0.132,0.078c1.381,0.824,2.775,1.846,3.96,2.729l0.171,0.128
			l0.164-0.141c1.252-1.056,2.59-2.024,3.493-2.652l0.242-0.172l-0.542-0.652l-0.207,0.149c-0.446,0.323-1.955,1.417-3.176,2.395
			l-0.385-0.273c-0.499-0.354-1.042-0.738-1.577-1.113v-12.993l7.478-6.913c1.039,0.788,2.394,1.954,3.226,2.769v15.81
			c0.261,2.201,1.327,2.844,2.361,3.461c0.118,0.075,0.236,0.143,0.354,0.218l0.156,0.097l0.15-0.105
			c1.049-0.769,2.226-1.731,3.229-2.651l0.189-0.171l-0.186-0.229c2.354,0.382,5.732,2.363,6.769,3.058l0.182,0.117l6.539-6.218
			l0.188-0.176L329.941,467.41z M318.407,463.986v-7.391c0-0.659-0.029-1.096-0.063-1.408c1.916-0.819,3.601-1.876,5.018-3.145
			c1.288,1.027,3.425,2.497,5.2,3.586L318.407,463.986z"/>
		<path d="M161.674,468.196l-0.542-0.649l-0.21,0.171c-1.916,1.563-3.942,3.516-5.711,5.248l-0.328-0.164
			c-2.412-1.217-5.148-2.594-8.819-2.594c-1.01,0-2.116,0.164-3.279,0.481c1.298-0.805,3.514-2.158,7.36-4.511l0.131-0.073v-13.25
			c0-3.108,1.381-4.177,3.65-5.565c0.799-0.46,1.505-0.692,2.109-0.692c0.424,0,0.624,0.039,0.845,0.104l0.353,0.109v-0.854
			l-0.203-0.053c-0.321-0.086-0.617-0.122-0.992-0.122c-0.771,0-1.599,0.264-2.526,0.806c-0.292,0.157-0.574,0.348-0.875,0.543
			c-0.228,0.153-0.467,0.313-0.724,0.469c-0.417,0.258-0.956,0.386-1.595,0.386c-1.167,0-2.547-0.386-3.375-0.718
			c-0.771-0.32-1.356-0.582-1.855-0.812c-0.589-0.26-1.049-0.471-1.556-0.659l-0.125-0.047l-0.114,0.071
			c-1.958,1.217-4.238,3.786-5.812,6.547l-0.15,0.267l0.778,0.329l0.118-0.214c1.323-2.391,3.567-4.978,5.276-6.09
			c0.367,0.153,0.821,0.354,1.42,0.608l1.688,0.726c1.013,0.449,2.397,0.76,3.507,0.796l-2.237,1.563
			c-1.776,1.236-3.596,2.817-3.596,5.166v1.603l-4.128,1.01l0.114,0.816l4.014-0.995v3.496l-4.128,1.01l0.114,0.817l4.014-0.996
			v3.789c0,2.739-3.796,5.205-5.43,6.144l-1.827,1.054l0.55,0.648l1.737-0.995c1.666-0.938,4.645-1.9,6.747-1.9
			c3.432,0,6.064,1.318,8.605,2.601l0.721,0.36l1.045-1.015c1.805-1.755,3.368-3.271,5.023-4.588L161.674,468.196z M149.647,450.108
			c0.132-0.092,0.265-0.188,0.4-0.279c-0.389,0.782-0.625,1.713-0.625,3.026v12.793l-5.333,3.273
			c0.703-0.953,1.045-1.895,1.045-2.854v-10.546c0-1.847,1.227-3.087,3.214-4.499C148.745,450.736,149.187,450.43,149.647,450.108z"
			/>
		<polygon points="291.924,445.627 291.275,445.081 288.321,449.073 288.97,449.619 		"/>
		<path d="M271.317,471.471l-0.652-0.55l-0.175,0.168c-0.742,0.703-1.891,1.652-2.847,2.35c-0.899-0.519-1.827-1.265-1.987-3.161
			v-15.44c0.257-0.642,0.721-0.978,0.91-1.099l0.271-0.164l-0.546-0.645l-0.196,0.114c-0.385,0.228-0.781,0.646-1.063,1.124
			c-1.398-0.585-4.16-2.001-5.216-3.021l-0.185-0.181l-0.189,0.175c-2.044,1.925-3.789,3.294-6.218,4.883l-0.204,0.132l0.107,0.218
			c0.814,1.619,2.134,2.922,4.035,3.971c-1.152,0.633-2.711,1.479-4.267,2.271l-0.15,0.075v8.04l0.064,0.074
			c1.084,1.277,3.307,2.736,4.916,3.543l0.136,0.071l0.128-0.078c2.815-1.737,5.048-3.286,6.811-4.721v0.773
			c0.289,2.45,1.562,3.327,2.732,3.955l0.15,0.079l0.139-0.1c1.177-0.86,2.369-1.827,3.271-2.651L271.317,471.471z M253.597,463.183
			c0.999-0.517,2.205-1.165,3.232-1.719c0.453-0.242,0.87-0.471,1.216-0.656c1.959,0.905,4.231,1.475,6.754,1.691v6.032
			c-1.702,1.47-4.042,3.125-6.971,4.92c-1.406-0.66-3.318-2.018-4.231-3.004V463.183z M254.111,456.419
			c2.169-1.405,3.796-2.754,5.52-4.324c1.127,0.914,3.834,2.313,5.169,2.869v6.718C259.772,461.257,255.723,459.263,254.111,456.419
			z"/>
		<path d="M295.866,470.34c-0.785,0.614-2.701,2.13-3.785,3.036c-0.635-0.46-1.227-0.882-1.958-1.385v-17.313l1.502-1.249
			l-0.542-0.651l-1.298,1.104c-0.756-0.703-1.599-1.616-2.508-2.712l-0.182-0.217l-2.95,2.683l0.542,0.646l2.323-2.13
			c0.834,0.953,1.594,1.755,2.262,2.399v16.86c-0.375-0.253-0.771-0.496-1.027-0.639l-0.403-0.223v0.963l0.132,0.078
			c1.074,0.641,2.89,1.912,3.949,2.729l0.171,0.132l0.168-0.139c1.091-0.914,3.132-2.563,4.124-3.321l0.225-0.176l-0.542-0.649
			L295.866,470.34z"/>
		<path d="M249.591,471.936c-0.121-0.187-0.243-0.37-0.368-0.561c-0.735-1.143-1.267-2.95-1.267-4.3v-13.06h3.129v-0.814h-3.56
			c-2.419-0.671-5.391-1.595-6.782-2.108l-0.164-0.061l-0.122,0.121c-1.484,1.481-2.908,2.601-5.426,3.565l-0.175,0.071v16.425
			l0.153,0.076c1.124,0.535,2.326,1.131,3.528,1.88c-1.199,1.052-3.55,3.196-4.791,4.905l-0.136,0.188l0.549,0.556l0.193-0.196
			c0.353-0.36,1.12-0.543,1.702-0.543c2.401,0,5.604,1.441,6.875,2.063l0.128,0.064l0.125-0.071
			c2.065-1.155,5.687-3.316,7.784-4.688l0.139-0.09l-0.014-0.16C250.979,474.047,250.304,473.023,249.591,471.936z M236.055,477.271
			c-0.214,0-0.417,0.015-0.606,0.044c2.818-3.135,8.944-7.995,11.673-9.632c0.118,1.498,0.771,3.188,1.417,4.176l0.282,0.436
			c0.631,0.981,1.23,1.912,1.355,2.646c-1.716,1.146-5.016,3.104-7.178,4.313C240.222,477.939,237.885,477.271,236.055,477.271z
			 M247.104,453.95v12.798c-1.398,0.705-4.509,3.015-7.898,5.864c-1.042-0.684-2.38-1.341-3.497-1.884v-15.369
			c1.952-0.788,3.45-1.772,5.091-3.353C242.177,452.495,244.978,453.334,247.104,453.95z"/>
		<path d="M234.575,471.467l-0.66-0.546l-0.175,0.168c-0.738,0.7-1.887,1.648-2.847,2.35c-0.899-0.519-1.827-1.265-1.99-3.161
			v-15.44c0.256-0.642,0.721-0.978,0.913-1.099l0.268-0.164l-0.542-0.645l-0.197,0.114c-0.385,0.226-0.781,0.646-1.063,1.124
			c-1.402-0.585-4.164-2.005-5.216-3.021l-0.186-0.181l-0.189,0.175c-2.059,1.936-3.799,3.306-6.218,4.883l-0.204,0.132l0.107,0.218
			c0.813,1.619,2.133,2.922,4.035,3.971c-1.231,0.671-2.722,1.48-4.267,2.271l-0.149,0.075v8.04l0.064,0.074
			c1.085,1.277,3.307,2.736,4.916,3.543l0.136,0.071l0.128-0.078c2.819-1.742,5.052-3.29,6.811-4.721v0.773
			c0.289,2.45,1.563,3.327,2.733,3.955l0.15,0.079l0.139-0.1c1.167-0.854,2.362-1.82,3.271-2.647L234.575,471.467z M216.851,463.183
			c1.01-0.521,2.233-1.184,3.271-1.738c0.439-0.235,0.839-0.453,1.181-0.637c1.959,0.905,4.231,1.475,6.754,1.691v6.032
			c-1.706,1.473-4.049,3.129-6.971,4.92c-1.406-0.66-3.318-2.018-4.231-3.004v-7.267L216.851,463.183L216.851,463.183z
			 M217.364,456.419c2.162-1.396,3.789-2.75,5.519-4.324c1.127,0.914,3.835,2.313,5.17,2.869v6.718
			C223.026,461.257,218.977,459.263,217.364,456.419z"/>
		<path d="M282.206,454.232c-0.243,0.207-0.574,0.319-0.906,0.319c-0.678,0-1.188-0.271-1.827-0.611l-0.164-0.092
			c-0.221-0.125-0.567-0.313-0.984-0.543c-1.082-0.588-2.711-1.479-4.103-2.344l-0.211-0.128l-0.149,0.196
			c-0.717,0.94-2.201,2.777-4.103,4.525l-0.189,0.176l0.539,0.647l0.21-0.188c1.463-1.327,3.093-3.204,3.903-4.254
			c1.456,0.866,3.257,1.846,4.245,2.378l0.468,0.253c0.813,0.421,1.384,0.717,2.005,0.788l-10.25,9.044l-0.196,0.172l0.535,0.659
			l1.909-1.698c0.945-0.831,1.445-0.896,2.101-0.896c4.164,0,6.646,2.034,6.646,5.441c0,3.521-3.939,6.609-7.103,9.087
			c-0.357,0.281-0.703,0.553-1.035,0.815c-0.978-0.265-2.08-0.55-3.222-0.55c-0.649,0-1.167,0.137-1.719,0.46l-0.21,0.117
			l0.346,0.803l0.271-0.19c0.214-0.15,0.738-0.371,1.313-0.371c1.081,0,2.105,0.261,3.329,0.603l0.136,0.039l0.106-0.089
			c0.432-0.35,0.893-0.71,1.367-1.088c3.243-2.551,7.278-5.723,7.278-9.632c0-3.029-1.969-6.262-7.5-6.262
			c-0.061,0-0.118,0.004-0.178,0.004l8.241-7.257l0.239-0.21l-0.66-0.536L282.206,454.232z"/>
	</g>
	<path d="M72.19,403.001l1.938,1.938c7.991-8.878,18.923-15.203,34.67-15.069c29.43,0.241,54.959,14.595,83.368,18.166
		l96.918-62.218l-2.929-2.93c-16.097,11.87-35.99,12.062-37.214,12.396c-0.218,0.011-0.41,0.021-0.567,0.023
		c-36.882,1.207-60.753-12.828-93.775-13.104C112.762,341.859,76.458,369.119,72.19,403.001 M506.77,326.625
		c-0.243-27.441-0.01-157.652-0.01-157.652c0.167-10.686,1.045-23.943,4.141-32.666c5.333-15.034,26.651-32.694,39.59-41.474
		c0,0-0.017-0.036-0.029-0.083l-3.114-3.114c-4.771,3.643-16.608,14.117-30.736,6.718c0,0-66.563-45.366-68.523-45.38
		c0,0-65.834,40.938-67.425,40.838c0,0-56.297-40.992-57.663-41.01c0,0-62.473,35.851-63.326,35.273
		c-3.878-16.433-13.868-24.042-15.847-25.744c-5.084-4.374-12.676-7.988-21.003-8.812c-20.914-2.058-33.853,4.303-48.252,9.065
		c0,0-25.202,9.205-31.438,10.318c-5.279,1.081-8.797,1.184-12.098-1.492c-4.581-3.55-2.636-9.233-0.414-13.089
		c1.028-1.777,2.394-3.51,3.55-5.027c0.906-1.181,7.838-9.44,9.347-11.306l-2.198-2.198c-7.717,6.807-23.557,19.433-30.795,27.385
		l-0.04-0.021c0,0-16.283,15.401-18.876,31.548c-1.399,8.687,0.785,22.333,12.825,29.005c13.129,7.277,32.658,1.991,32.658,1.991
		s22.947-6.938,34.157-10.05c4.819-1.338,24.926-8.502,24.926,10.029l0.225,132.978c0.153,17.81,0.492,37.416-2.701,50.445
		c-2.75,16.025-9.543,19.555-10.913,21.506l2.647,2.649c7.192-4.174,52.205-31.291,52.205-31.291
		c9.914-5.896,15.198-13.6,16.985-16.925c5.994-11.167,5.947-27.019,5.801-43.104l-0.089-144.059
		c0.075-9.408,7.399-24.652,34.745-2.472l26.101,18.384c0.827,11.402,0.328,214.94,0.328,214.94
		c0.157,17.808,1.733,37.414-1.459,50.442c-3.115,16.012-9.515,19.603-10.713,21.57l2.693,2.69c6.945-4.11,50.1-31.395,50.1-31.395
		c9.911-5.895,15.198-13.6,16.985-16.925c5.988-11.167,5.942-27.019,5.801-43.104c-0.128-14.467-0.039-204.989-0.039-204.989
		c-1.473-17.806,10.957-26.96,27.438-16.322c10.742,5.683,63.473,38.569,63.473,38.569c-27.053,14.469-30.835,36.903-31.362,58.465
		c-0.257,10.646-0.036,148.549-0.036,148.549c-0.058,14.097-1.431,28.952,3.461,40.282c5.276,10.55,35.451,27.139,35.451,27.139
		c1.591,0.015,43.09-23.742,60.029-33.479l20.479-11.026l-2.938-2.942c-16.435,10.117-23.396,9.414-28.877,8.561l-0.011,0.007
		C508.383,362.915,506.855,336.447,506.77,326.625"/>
</g>
</svg>
